<?xml version="1.0" encoding="UTF-8"?>
<svg id="Layer_1" data-name="Layer 1" xmlns="http://www.w3.org/2000/svg" viewBox="0 0 1080 1080">
  <defs>
    <style>
      .cls-1 {
        fill: #be1e2d;
      }

      .cls-1, .cls-2 {
        stroke-width: 0px;
      }

      .cls-2 {
        fill: #febc12;
      }
    </style>
  </defs>
  <g>
    <path class="cls-1" d="M440.55,538.49c.15.03.29.03.43,0,2.89-.52,6.08-.78,9.59-.78h45.76c17.43,0,26.15,6.27,26.15,18.79v47.39c0,12.53-8.72,18.79-26.15,18.79h-15c-.74,0-1.34-.6-1.34-1.34v-5.55c0-.69.52-1.28,1.21-1.33,5.73-.42,8.59-3.95,8.59-10.58v-47.39c0-7.08-3.27-10.62-9.8-10.62h-13.07c-6.54,0-9.8,3.54-9.8,10.62v47.39c0,12.53-8.72,18.79-26.15,18.79h-45.76c-17.43,0-26.15-6.26-26.15-18.79v-47.39c0-12.53,8.71-18.79,26.15-18.79h15c.74,0,1.34.6,1.34,1.34v5.55c0,.69-.52,1.28-1.21,1.33-5.73.42-8.59,3.95-8.59,10.58v47.39c0,7.08,3.27,10.62,9.8,10.62h13.07c6.54,0,9.8-3.54,9.8-10.62v-47.39c0-6.63-2.87-10.16-8.59-10.58-.69-.05-1.21-.64-1.21-1.33v-5.55c0-.74.6-1.34,1.34-1.34h15c3.61,0,6.81.26,9.59.78Z"/>
    <path class="cls-1" d="M480.36,663.54v-36.25c0-.74.6-1.34,1.34-1.34h30.01c.74,0,1.34.6,1.34,1.34v36.25c0,7.62,2.18,11.44,6.54,11.44h5.2c.74,0,1.34.6,1.34,1.34v5.5c0,.74-.6,1.34-1.34,1.34h-26.44c-11.98,0-17.98-6.54-17.98-19.61Z"/>
    <path class="cls-1" d="M621.66,538.06c.15.03.29.03.43,0,2.89-.52,6.08-.78,9.59-.78h45.76c17.43,0,26.15,6.27,26.15,18.79v47.39c0,12.53-8.72,18.79-26.15,18.79h-15c-.74,0-1.34-.6-1.34-1.34v-5.55c0-.69.52-1.28,1.21-1.33,5.73-.42,8.59-3.95,8.59-10.58v-47.39c0-7.08-3.27-10.62-9.8-10.62h-13.07c-6.54,0-9.8,3.54-9.8,10.62v47.39c0,12.53-8.72,18.79-26.15,18.79h-45.76c-17.43,0-26.15-6.26-26.15-18.79v-47.39c0-12.53,8.71-18.79,26.15-18.79h45.76c3.61,0,6.81.26,9.59.78ZM605.54,556.08c0-7.08-3.27-10.62-9.8-10.62h-13.07c-6.54,0-9.8,3.54-9.8,10.62v47.39c0,7.08,3.27,10.62,9.8,10.62h13.07c6.54,0,9.8-3.54,9.8-10.62v-47.39Z"/>
    <path class="cls-1" d="M654.56,502.23v20.43c0,2.4,1.91,3.6,5.72,3.6s5.72-1.2,5.72-3.6c0-6.32,4.36-9.48,13.07-9.48s13.07,3.16,13.07,9.48c0,8.39-6.97,12.58-20.92,12.58h-25.17c-13.94,0-20.92-4.19-20.92-12.58v-20.43c0-16.12,13.07-24.19,39.22-24.19s38.55,8.69,39.2,26.08c.03.75-.59,1.37-1.34,1.37h-1.45c-.6,0-1.16-.38-1.33-.96-2.37-8.51-14.06-12.76-35.07-12.76-6.54,0-9.8,3.49-9.8,10.46Z"/>
    <path class="cls-1" d="M748.12,625.53h30.01c.74,0,1.34.6,1.34,1.34v36.25c0,13.07-5.99,19.61-17.98,19.61h-26.44c-.74,0-1.34-.6-1.34-1.34v-5.5c0-.74.6-1.34,1.34-1.34h5.2c4.36,0,6.54-3.82,6.54-11.44v-36.25c0-.74.6-1.34,1.34-1.34Z"/>
    <path class="cls-1" d="M759.86,622.26c-17.43,0-26.15-6.26-26.15-18.79v-47.39c0-12.53,8.71-18.79,26.15-18.79h45.76c17.43,0,26.15,6.27,26.15,18.79v107.04c0,7.62,2.18,11.44,6.54,11.44h5.2c.74,0,1.34.6,1.34,1.34v5.5c0,.74-.6,1.34-1.34,1.34h-26.44c-11.99,0-17.98-6.54-17.98-19.61v-107.04c0-7.08-3.27-10.62-9.8-10.62h-13.07c-6.54,0-9.8,3.54-9.8,10.62v4.38c0,.43.21.83.56,1.08,10.52,7.49,15.78,17.93,15.78,31.31v9.8c0,13.07-4.09,19.61-12.26,19.61h-10.62ZM768.83,574.72c-.77-1.05-2.44-.52-2.44.78v27.97c0,5.66,1.36,8.5,4.09,8.5s4.08-3.11,4.08-9.32v-9.8c0-6.85-1.91-12.89-5.73-18.13Z"/>
    <path class="cls-1" d="M877.52,565.88v37.59c0,7.08,3.27,10.62,9.8,10.62h13.07c6.54,0,9.8-3.54,9.8-10.62v-12.55c0-.74.6-1.34,1.34-1.34h30.01c.74,0,1.34.6,1.34,1.34v12.55c0,12.53-8.72,18.79-26.15,18.79h-45.76c-17.43,0-26.15-6.26-26.15-18.79v-37.59c0-19.06,16.34-28.6,49.03-28.6s48.22,9.08,49,27.23c.03.75-.59,1.37-1.34,1.37h-2.5c-.61,0-1.12-.42-1.29-1-2.91-9.68-17.53-14.52-43.87-14.52-10.9,0-16.34,5.18-16.34,15.52Z"/>
    <path class="cls-1" d="M884.05,501.83v20.43c0,2.4,1.91,3.6,5.72,3.6s5.72-1.2,5.72-3.6c0-6.32,4.36-9.48,13.07-9.48s13.07,3.16,13.07,9.48c0,8.39-6.97,12.58-20.92,12.58h-25.17c-13.94,0-20.92-4.19-20.92-12.58v-20.43c0-16.12,13.07-24.19,39.22-24.19s38.55,8.69,39.2,26.08c.03.75-.59,1.37-1.34,1.37h-1.45c-.6,0-1.16-.38-1.33-.96-2.37-8.51-14.06-12.76-35.07-12.76-6.54,0-9.8,3.49-9.8,10.46Z"/>
  </g>
  <g>
    <g>
      <rect class="cls-1" x="137.12" y="491.34" width="28.98" height="97.32" rx="4.24" ry="4.24"/>
      <path class="cls-1" d="M239.71,499.71v9.69c0,9.58,7.77,17.35,17.35,17.35h57.43c1.91,0,3.46,1.55,3.46,3.46v93.58c0,1.91-1.55,3.46-3.46,3.46h-173.88c-1.93,0-3.5-1.57-3.5-3.5v-21.98c0-1.93,1.57-3.5,3.5-3.5h131.68c9.22,0,16.69-7.47,16.69-16.69v-9.06c0-9.27-7.52-16.79-16.79-16.79h-94.34c-1.93,0-3.5-1.57-3.5-3.5v-22c0-1.93,1.57-3.5,3.5-3.5h15.65c9.52,0,17.24-7.72,17.24-17.24v-49.54c0-3.66,2.96-6.62,6.62-6.62h97.14c1.91,0,3.46,1.55,3.46,3.46v22.04c0,1.91-1.55,3.46-3.46,3.46h-57.41c-9.6,0-17.38,7.78-17.38,17.38Z"/>
    </g>
    <g>
      <path class="cls-2" d="M140.85,635.31c-.89,0-1.6.75-1.55,1.64.52,8.57,3.67,35.36,26.21,57.09,22.05,21.26,48.2,23.74,56.77,24.07.88.03,1.6-.67,1.61-1.55l.02-11.06c0-.84-.66-1.53-1.51-1.55-7.19-.18-26.85-1.87-44.32-16.73h0s-.03-.02-.03-.02c.01.01.02.02.03.02l3.7-4.21c.55-.63,1.49-.7,2.14-.18.13.11.26.21.4.32,13.62,10.83,27.83,13.91,35.23,14.9.93.12,1.75-.6,1.76-1.53l.09-59.53c0-.86-.69-1.55-1.55-1.55l-78.98-.12ZM156.88,648.31l50.08-.05c.86,0,1.56.7,1.55,1.56-.06,9.88-.11,19.76-.17,29.64,0,1.06-1.04,1.8-2.04,1.46-2.22-.75-4.86-1.86-7.63-3.54-2.25-1.36-4.13-2.82-5.67-4.2-1.07-.95-.4-2.72,1.03-2.71h4.48c.86,0,1.55-.68,1.55-1.54v-9.33c.02-.86-.68-1.55-1.53-1.55l-31.7-.05c-1.16,0-1.92,1.23-1.38,2.26,1.72,3.29,4.2,7.43,7.7,11.79.5.62.46,1.52-.11,2.08l-2.7,2.68c-.66.65-1.75.59-2.31-.14-7.96-10.38-11.26-20.78-12.65-26.43-.24-.98.49-1.92,1.5-1.92Z"/>
      <path class="cls-2" d="M233.7,636.98l.09,59.53c0,.94.82,1.66,1.76,1.53,7.4-.99,21.61-4.06,35.23-14.9.13-.11.26-.21.4-.32.65-.52,1.59-.45,2.14.18l3.7,4.21s.02-.01.03-.02l-.03.03h0c-17.47,14.86-37.13,16.55-44.32,16.73-.84.02-1.51.71-1.51,1.55l.02,11.06c0,.88.73,1.58,1.61,1.55,8.57-.33,34.72-2.81,56.77-24.07,22.54-21.73,25.68-48.52,26.21-57.09.05-.89-.66-1.64-1.55-1.64l-78.98.12c-.86,0-1.55.7-1.55,1.55ZM284.73,676.81l-2.7-2.68c-.57-.56-.61-1.46-.11-2.08,3.5-4.36,5.99-8.5,7.7-11.79.54-1.03-.22-2.26-1.38-2.26l-31.7.05c-.86,0-1.55.7-1.55,1.55v9.33c.02.86.71,1.55,1.57,1.55h4.48c1.43,0,2.09,1.75,1.03,2.71-1.54,1.38-3.42,2.84-5.67,4.2-2.78,1.68-5.41,2.79-7.63,3.54-1,.34-2.03-.41-2.04-1.46-.06-9.88-.11-19.76-.17-29.64,0-.86.69-1.56,1.55-1.56l50.08.05c1.01,0,1.74.95,1.5,1.92-1.38,5.65-4.69,16.05-12.65,26.43-.56.74-1.65.8-2.31.14Z"/>
    </g>
    <g>
      <path class="cls-2" d="M221.38,443.02l-.09-59.53c0-.94-.82-1.66-1.76-1.53-7.4.99-21.61,4.06-35.23,14.9-.13.11-.26.21-.4.32-.65.52-1.59.45-2.14-.18l-3.7-4.21s-.02.01-.03.02l.03-.03h0c17.47-14.86,37.13-16.55,44.32-16.73.84-.02,1.51-.71,1.51-1.55l-.02-11.06c0-.88-.73-1.58-1.61-1.55-8.57.33-34.72,2.81-56.77,24.07-22.54,21.73-25.68,48.52-26.21,57.09-.05.89.66,1.64,1.55,1.64l78.98-.12c.86,0,1.55-.7,1.55-1.55ZM170.34,403.19l2.7,2.68c.57.56.61,1.46.11,2.08-3.5,4.36-5.99,8.5-7.7,11.79-.54,1.03.22,2.26,1.38,2.26l31.7-.05c.86,0,1.55-.7,1.55-1.55v-9.33c-.02-.86-.71-1.55-1.57-1.55h-4.48c-1.43,0-2.09-1.75-1.03-2.71,1.54-1.38,3.42-2.84,5.67-4.2,2.78-1.68,5.41-2.79,7.63-3.54,1-.34,2.03.41,2.04,1.46.06,9.88.11,19.76.17,29.64,0,.86-.69,1.56-1.55,1.56l-50.08-.05c-1.01,0-1.74-.95-1.5-1.92,1.38-5.65,4.69-16.05,12.65-26.43.56-.74,1.65-.8,2.31-.14Z"/>
      <path class="cls-2" d="M314.23,444.69c.89,0,1.6-.75,1.55-1.64-.52-8.57-3.67-35.36-26.21-57.09-22.05-21.26-48.2-23.74-56.77-24.07-.88-.03-1.6.67-1.61,1.55l-.02,11.06c0,.84.66,1.53,1.51,1.55,7.19.18,26.85,1.87,44.32,16.73h0s.03.02.03.02c-.01-.01-.02-.02-.03-.02l-3.7,4.21c-.55.63-1.49.7-2.14.18-.13-.11-.26-.21-.4-.32-13.62-10.83-27.83-13.91-35.23-14.9-.93-.12-1.75.6-1.76,1.53l-.09,59.53c0,.86.69,1.55,1.55,1.55l78.98.12ZM298.19,431.69l-50.08.05c-.86,0-1.56-.7-1.55-1.56.06-9.88.11-19.76.17-29.64,0-1.06,1.04-1.8,2.04-1.46,2.22.75,4.86,1.86,7.63,3.54,2.25,1.36,4.13,2.82,5.67,4.2,1.07.95.4,2.72-1.03,2.71h-4.48c-.86,0-1.55.68-1.55,1.54v9.33c-.02.86.68,1.55,1.53,1.55l31.7.05c1.16,0,1.92-1.23,1.38-2.26-1.72-3.29-4.2-7.43-7.7-11.79-.5-.62-.46-1.52.11-2.08l2.7-2.68c.66-.65,1.75-.59,2.31.14,7.96,10.38,11.26,20.78,12.65,26.43.24.98-.49,1.92-1.5,1.92Z"/>
    </g>
  </g>
</svg>